<?xml version="1.0" encoding="UTF-8"?>
<svg preserveAspectRatio="xMidYMid slice" xmlns="http://www.w3.org/2000/svg" width="120px" height="98px" viewBox="1222.84 2096.279 28.726 23.34">
  <path d="M1248.648 2102.844c0 2.693-.654 5.293-1.962 7.8-1.347 2.654-3.237 4.767-5.667 6.338-2.657 1.758-5.705 2.637-9.146 2.637-3.292 0-6.303-.879-9.033-2.637.411.038.879.056 1.402.056 2.731 0 5.181-.841 7.351-2.524-1.31 0-2.46-.384-3.451-1.151-.992-.766-1.674-1.729-2.048-2.889.374.038.729.056 1.066.056.524 0 1.047-.056 1.571-.169-1.346-.298-2.468-.99-3.367-2.075-.897-1.085-1.345-2.319-1.345-3.703v-.112c.822.486 1.701.748 2.636.785a6.534 6.534 0 0 1-1.908-2.132 5.66 5.66 0 0 1-.728-2.833c0-1.029.28-2.011.84-2.946a16.246 16.246 0 0 0 5.359 4.377 16.33 16.33 0 0 0 6.761 1.795 8.17 8.17 0 0 1-.113-1.347c0-1.047.262-2.029.786-2.945a5.78 5.78 0 0 1 2.132-2.161 5.696 5.696 0 0 1 2.917-.785c.861 0 1.655.168 2.385.505a6.645 6.645 0 0 1 1.935 1.347c1.347-.262 2.6-.73 3.76-1.403-.449 1.384-1.309 2.468-2.581 3.254a12.643 12.643 0 0 0 3.366-.954 12.938 12.938 0 0 1-2.973 3.086c.037.15.055.393.055.73Z" fill="#fff" fill-rule="evenodd" data-name="Path 2"></path>
</svg>
