<?xml version="1.0" encoding="UTF-8"?>
<svg preserveAspectRatio="xMidYMid slice" xmlns="http://www.w3.org/2000/svg" width="17px" height="34px" viewBox="1183.245 2094.444 13.717 26.884">
  <path d="m1187.35 2109.351-4.028.065-.077-4.759 4.027-.065-.06-3.765c-.033-1.988.5-3.54 1.598-4.657 1.098-1.116 2.571-1.69 4.419-1.72 1.499-.024 2.72.026 3.664.151l.069 4.237-2.511.04c-.941.016-1.583.235-1.925.66-.273.353-.404.912-.391 1.679l.053 3.295 4.446-.072-.55 4.769-3.818.062.194 11.977-4.916.08-.194-11.977Z" fill="#fff" fill-rule="evenodd" data-name="Path 1"></path>
</svg>
